<?xml version="1.0" encoding="utf-8"?>
<!-- Svg Vector Icons : http://www.onlinewebfonts.com/icon -->
<!DOCTYPE svg PUBLIC "-//W3C//DTD SVG 1.1//EN" "http://www.w3.org/Graphics/SVG/1.1/DTD/svg11.dtd">
<svg version="1.1" xmlns="http://www.w3.org/2000/svg" xmlns:xlink="http://www.w3.org/1999/xlink" x="0px" y="0px" viewBox="0 0 1000 1000" enable-background="new 0 0 1000 1000" xml:space="preserve">
<metadata> Svg Vector Icons : http://www.onlinewebfonts.com/icon </metadata>
<g><path d="M206,304c36.1,0,66.9-12.8,92.4-38.3c25.5-25.5,38.3-56.3,38.3-92.4c0-36.1-12.8-66.9-38.3-92.4c-25.5-25.5-56.3-38.3-92.4-38.3c-36.1,0-66.9,12.8-92.4,38.3c-25.5,25.5-38.3,56.3-38.3,92.4c0,36.1,12.8,66.9,38.3,92.4C139.1,291.2,169.9,304,206,304L206,304z"/><path d="M361.4,507.9c38.3,38.3,84.5,57.4,138.6,57.4c54.1,0,100.3-19.1,138.6-57.4c38.3-38.3,57.4-84.5,57.4-138.6c0-54.1-19.1-100.3-57.4-138.6c-38.3-38.3-84.5-57.4-138.6-57.4c-54.1,0-100.3,19.1-138.6,57.4C323.1,269,304,315.2,304,369.3C304,423.4,323.1,469.6,361.4,507.9L361.4,507.9z"/><path d="M794,304c36.1,0,66.9-12.8,92.4-38.3c25.5-25.5,38.3-56.3,38.3-92.4c0-36.1-12.8-66.9-38.3-92.4c-25.5-25.5-56.3-38.3-92.4-38.3c-36.1,0-66.9,12.8-92.4,38.3c-25.5,25.5-38.3,56.3-38.3,92.4c0,36.1,12.8,66.9,38.3,92.4C727.1,291.2,757.9,304,794,304L794,304z"/><path d="M926.7,304c-2,0-9.4,3.6-22.2,10.7c-12.8,7.1-29.4,14.4-49.8,21.7c-20.4,7.3-40.7,11-60.7,11c-22.8,0-45.4-3.9-67.9-11.7c1.7,12.6,2.5,23.8,2.5,33.7c0,47.3-13.8,90.9-41.4,130.7c55.1,1.7,100.2,23.5,135.3,65.3H891c27.9,0,51.4-6.9,70.4-20.7c19.1-13.8,28.6-33.9,28.6-60.5C990,364.1,968.9,304,926.7,304L926.7,304z"/><path d="M850.4,716.7c-3.6-19.9-8.1-38.4-13.5-55.4c-5.4-17-12.8-33.6-21.9-49.8c-9.2-16.2-19.7-29.9-31.7-41.3c-11.9-11.4-26.5-20.5-43.6-27.3c-17.2-6.8-36.2-10.2-56.9-10.2c-3.4,0-10.7,3.7-22,11c-11.2,7.3-23.6,15.5-37.3,24.5c-13.6,9-31.8,17.2-54.6,24.5s-45.8,11-68.9,11c-23.1,0-46.1-3.7-68.9-11c-22.8-7.3-41-15.5-54.6-24.5c-13.6-9-26-17.2-37.3-24.5c-11.2-7.3-18.5-11-22-11c-20.8,0-39.7,3.4-56.9,10.2c-17.2,6.8-31.7,15.9-43.6,27.3c-11.9,11.4-22.5,25.2-31.7,41.3c-9.2,16.2-16.5,32.7-21.9,49.8c-5.4,17-9.9,35.5-13.5,55.4c-3.6,19.9-6,38.4-7.1,55.6c-1.2,17.2-1.8,34.8-1.8,52.8c0,40.8,12.4,73.1,37.3,96.7c24.8,23.6,57.9,35.5,99,35.5h446.1c41.2,0,74.2-11.8,99-35.5c24.8-23.6,37.3-55.9,37.3-96.7c0-18-0.6-35.6-1.8-52.8C856.4,755.1,854,736.6,850.4,716.7L850.4,716.7z"/><path d="M312.7,500c-27.6-39.8-41.3-83.4-41.3-130.7c0-9.9,0.9-21.1,2.5-33.7c-22.5,7.8-45.1,11.7-67.9,11.7c-20.1,0-40.3-3.7-60.7-11c-20.4-7.3-37-14.5-49.8-21.7C82.7,307.6,75.3,304,73.3,304C31.1,304,10,364.1,10,484.2c0,26.5,9.5,46.7,28.6,60.5c19.1,13.8,42.5,20.7,70.4,20.7h68.4C212.5,523.5,257.5,501.7,312.7,500L312.7,500z"/></g>
</svg>