<?xml version="1.0" encoding="utf-8"?>
<!-- Svg Vector Icons : http://www.onlinewebfonts.com/icon -->
<!DOCTYPE svg PUBLIC "-//W3C//DTD SVG 1.1//EN" "http://www.w3.org/Graphics/SVG/1.1/DTD/svg11.dtd">
<svg version="1.1" xmlns="http://www.w3.org/2000/svg" xmlns:xlink="http://www.w3.org/1999/xlink" x="0px" y="0px" viewBox="0 0 1000 1000" enable-background="new 0 0 1000 1000" xml:space="preserve">
<metadata> Svg Vector Icons : http://www.onlinewebfonts.com/icon </metadata>
<g><path d="M219.3,209.8c0,0-18.8,8.7-17.1,30.2c0,0,0.6,25.7,33,33c0,0,38.1,0,36.4-35c0,0,0.8-20.4-16.8-28.3L254.6,92c0,0-2.6-14.3-17.7-15.4c0,0-14.3,0.4-17,15.7L219.3,209.8z"/><path d="M464.2,209.8c0,0-18.8,8.7-17.1,30.2c0,0,0.6,25.7,33,33c0,0,38.1,0,36.4-35c0,0,0.8-20.4-16.8-28.3L499.5,92c0,0-2.6-14.3-17.7-15.4c0,0-14.3,0.4-17,15.7L464.2,209.8z"/><path d="M709.4,209.8c0,0-18.8,8.7-17.1,30.2c0,0,0.6,25.7,33,33c0,0,38.1,0,36.4-35c0,0,0.8-20.4-16.8-28.3L744.7,92c0,0-2.6-14.3-17.7-15.4c0,0-14.3,0.4-17,15.7L709.4,209.8z"/><path d="M289.7,120.5h139.4V190H289.7V120.5z"/><path d="M534.9,120.5h139.4V190H534.9V120.5z"/><path d="M183.8,120.5H76.3c0,0-61.8,2.8-66,67.7L10,790.5c0,0,7.3,48.1,65.5,55.1l533.8-0.2c0,0-24.6-41-24.6-69L80.2,776L79,347.3l796.8,0.2v178.8c0,0,50.7,16.2,68.6,39.5V185.2c0,0-2.5-57.7-62.1-64.6H779l0.6,69.5h95.2l0.3,123H79.7l-0.3-123h104.7L183.8,120.5z"/><path d="M307.2,452.4c0,19.6,15.9,35.4,35.4,35.4c19.6,0,35.4-15.9,35.4-35.4c0-19.6-15.8-35.4-35.4-35.4C323,417,307.2,432.9,307.2,452.4z"/><path d="M447.4,452.4c0,19.6,15.9,35.4,35.4,35.4s35.4-15.9,35.4-35.4c0-19.6-15.8-35.4-35.4-35.4S447.4,432.9,447.4,452.4z"/><path d="M585.9,452.4c0,19.6,15.8,35.4,35.4,35.4s35.4-15.9,35.4-35.4c0-19.6-15.9-35.4-35.4-35.4S585.9,432.9,585.9,452.4z"/><path d="M726.4,452.4c0,19.6,15.8,35.4,35.4,35.4s35.4-15.9,35.4-35.4c0-19.6-15.8-35.4-35.4-35.4S726.4,432.9,726.4,452.4z"/><path d="M587,566.9c0,19.6,15.8,35.4,35.4,35.4s35.4-15.8,35.4-35.4c0-19.6-15.9-35.4-35.4-35.4S587,547.3,587,566.9z"/><path d="M446.3,566.9c0,19.6,15.9,35.4,35.4,35.4c19.6,0,35.4-15.8,35.4-35.4c0-19.6-15.8-35.4-35.4-35.4C462.1,531.5,446.3,547.3,446.3,566.9L446.3,566.9z"/><path d="M307.2,566.9c0,19.6,15.9,35.4,35.4,35.4c19.6,0,35.4-15.8,35.4-35.4c0-19.6-15.8-35.4-35.4-35.4C323,531.5,307.2,547.3,307.2,566.9z"/><path d="M166.1,565.2c0,19.6,15.8,35.4,35.4,35.4c19.6,0,35.4-15.9,35.4-35.4c0-19.6-15.9-35.4-35.4-35.4C182,529.8,166.1,545.6,166.1,565.2z"/><path d="M166.1,679.7c0,19.6,15.8,35.4,35.4,35.4c19.6,0,35.4-15.9,35.4-35.4c0-19.6-15.9-35.4-35.4-35.4C182,644.3,166.1,660.1,166.1,679.7z"/><path d="M307.2,679.7c0,19.6,15.9,35.4,35.4,35.4c19.6,0,35.4-15.9,35.4-35.4c0-19.6-15.8-35.4-35.4-35.4C323,644.3,307.2,660.1,307.2,679.7z"/><path d="M446.3,679.7c0,19.6,15.9,35.4,35.4,35.4c19.6,0,35.4-15.9,35.4-35.4c0-19.6-15.9-35.4-35.4-35.4C462.1,644.3,446.3,660.1,446.3,679.7z"/><path d="M804.2,584.2c0,0-146.6-1.1-153.9,158.4c0,0,2.8,139.9,153.9,146.6l3.9,34.1c0,0-185.3,5.6-192.5-190.3c0,0,13.4-184.1,192.5-182.5L804.2,584.2z"/><path d="M783.8,586.1l-3.6-35.5c0,0,194.2-20.7,209.8,182.5c0,0,7.4,183-192.8,190.3l-12.3-35.8c0,0,163.2,20.7,171.1-157.3C955.9,730.3,947,575.8,783.8,586.1z"/><path d="M784.1,718.6c0,0,25.2-18.5,43.1,5h84c0,0,17.9,2.2,18.5,20.1c0,0,3.4,19-17.9,22.9h-95.2c0,0-29.7,21.3-43.1-20.2l-81.2-45.3c0,0-11.2-26.9,19.6-21.6L784.1,718.6z"/></g>
</svg>